<?xml version="1.0" encoding="UTF-8" standalone="no"?>
<!-- Created with Inkscape (http://www.inkscape.org/) -->

<svg
   width="80.04319mm"
   height="71.255714mm"
   viewBox="0 0 80.04319 71.255714"
   version="1.1"
   id="svg849"
   inkscape:version="1.1 (c68e22c387, 2021-05-23)"
   sodipodi:docname="react.svg"
   xmlns:inkscape="http://www.inkscape.org/namespaces/inkscape"
   xmlns:sodipodi="http://sodipodi.sourceforge.net/DTD/sodipodi-0.dtd"
   xmlns="http://www.w3.org/2000/svg"
   xmlns:svg="http://www.w3.org/2000/svg">
  <sodipodi:namedview
     id="namedview851"
     pagecolor="#ffffff"
     bordercolor="#666666"
     borderopacity="1.0"
     inkscape:pageshadow="2"
     inkscape:pageopacity="0.0"
     inkscape:pagecheckerboard="0"
     inkscape:document-units="mm"
     showgrid="false"
     inkscape:zoom="0.74118967"
     inkscape:cx="379.12023"
     inkscape:cy="328.52589"
     inkscape:window-width="1920"
     inkscape:window-height="1017"
     inkscape:window-x="1912"
     inkscape:window-y="-8"
     inkscape:window-maximized="1"
     inkscape:current-layer="layer1" />
  <defs
     id="defs846" />
  <g
     inkscape:label="Layer 1"
     inkscape:groupmode="layer"
     id="layer1"
     transform="translate(-4.566267,-4.7099045)">
    <path
       style="fill:#62d9fb;stroke:none;stroke-width:0.114505;paint-order:stroke fill markers"
       d="m 21.341381,26.923934 c -4.121171,1.30147 -8.207301,2.91118 -11.6795708,5.51537 -1.814898,1.36114 -3.46596,2.94256 -4.446567,5.01911 -0.221913,0.46982 -0.333211,0.9891 -0.458042,1.48859 -1.195776,4.78299 3.473751,8.62866 7.0802178,10.78263 0.71258,0.4255 1.435118,0.8511 2.175608,1.22131 0.889131,0.44462 1.823853,0.83006 2.748139,1.20232 1.390667,0.56013 3.072851,1.44596 4.580215,1.56494 0,1.56286 -0.650381,3.1396 -0.80155,4.69472 -0.456516,4.69587 -0.770725,9.65258 1.507706,13.96967 0.314072,0.59518 0.767193,1.12979 1.240432,1.60308 3.202717,3.202725 8.442588,1.985055 12.02308,0.0955 0.939506,-0.49579 1.832305,-1.05606 2.748116,-1.60305 0.88159,-0.52651 1.699271,-1.15985 2.519121,-1.77485 1.02929,-0.772 2.02296,-1.58141 2.97716,-2.44274 0.37761,-0.34087 0.77348,-0.5865 1.03055,-1.03053 h 0.1146 c 0.2991,0.50302 0.91146,0.92506 1.37408,1.29766 0.84652,0.68201 1.64748,1.40742 2.51912,2.0611 0.92346,0.69265 1.87488,1.38117 2.86262,1.98484 0.63755,0.38967 1.28511,0.75701 1.94659,1.08781 3.75761,1.878805 9.09253,3.827465 12.59561,0.32439 0.47324,-0.47326 0.92633,-1.00788 1.24043,-1.60308 2.12808,-4.03206 2.05319,-8.73549 1.62219,-13.16812 -0.12166,-1.25086 -0.35369,-2.54522 -0.61064,-3.77868 -0.11985,-0.57538 -0.3054,-1.12296 -0.3054,-1.71757 1.67314,-0.13214 3.51108,-1.15754 5.03824,-1.79396 0.89749,-0.37388 1.76947,-0.77018 2.63363,-1.20231 0.77851,-0.38919 1.55601,-0.83749 2.29012,-1.31681 3.3622,-2.19472 7.51292,-5.67902 6.56492,-10.22912 -0.1244,-0.59704 -0.25272,-1.16178 -0.51528,-1.71759 -0.48754,-1.03248 -1.15661,-2.00876 -1.92745,-2.86261 -2.43176,-2.69374 -5.99895,-4.55112 -9.27494,-5.91616 -1.16201,-0.48413 -2.35229,-0.89852 -3.54969,-1.29769 -0.34934,-0.11642 -1.13016,-0.22191 -1.3168,-0.57253 -0.17612,-0.33116 0.17384,-1.13234 0.24814,-1.48857 0.25752,-1.23619 0.48882,-2.52563 0.61064,-3.77868 0.37158,-3.821387 0.56946,-8.038842 -0.89692,-11.6795518 -0.67499,-1.675781 -1.68139,-3.342313 -3.33976,-4.217569 -5.13454,-2.709907 -11.31795,1.036496 -15.45824,4.026688 -1.06376,0.7683318 -2.11812,1.6020528 -3.09164,2.4809998 -0.30883,0.278803 -0.95177,1.103935 -1.37406,1.145037 -0.37547,0.03645 -0.79066,-0.584992 -1.03055,-0.801528 -0.73227,-0.661044 -1.51595,-1.295637 -2.29012,-1.908448 -2.80471,-2.2204008 -6.039939,-4.3049668 -9.503962,-5.2672558 -1.126605,-0.312956 -2.265718,-0.496159 -3.435156,-0.496159 -0.822603,0 -1.615314,0.06425 -2.404607,0.305392 -4.578621,1.399029 -5.330572,6.3988958 -5.725275,10.4581178 -0.139892,1.437966 -0.140347,2.907167 0,4.351217 0.08567,0.88066 0.245835,1.7542 0.343508,2.63361 0.159486,1.43509 0.398486,2.95872 0.801551,4.35121 m 3.435156,-1.03055 c -0.02734,-1.0341 -0.457905,-2.06041 -0.572529,-3.09164 -0.144221,-1.29885 -0.331593,-2.59242 -0.45802,-3.89318 -0.162219,-1.669287 0.04671,-3.397721 0.229021,-5.038256 0.155385,-1.39707 0.542866,-2.984132 1.412198,-4.1221968 1.08744,-1.423521 2.821046,-1.476538 4.427565,-1.164175 3.259176,0.633795 6.214098,2.5729558 8.816923,4.5612138 0.866689,0.66207 1.732007,1.344872 2.519117,2.099216 0.20505,0.196622 0.6448,0.412338 0.7443,0.687063 0.1326,0.36595 -0.52571,0.808841 -0.7443,1.030526 -0.8897,0.902323 -1.67749,1.915809 -2.519117,2.862649 -0.801528,0.90171 -1.528873,1.89849 -2.25198,2.86263 -0.31512,0.42024 -0.663573,1.14357 -1.106806,1.43131 -0.328403,0.21325 -0.854317,0.13602 -1.22143,0.17179 -0.56852,0.0554 -1.152738,0.16176 -1.717589,0.24813 -1.603991,0.24504 -3.218165,0.48917 -4.809237,0.82053 -0.90893,0.18934 -1.813645,0.53442 -2.748116,0.53442 M 59.929826,8.3933252 c 0.45629,-0.06972 1.0278,-0.06379 1.48857,-0.01823 2.93558,0.285479 3.66154,4.0300138 3.89318,6.4123148 0.033,0.340319 -0.033,0.69023 0,1.030527 0.0699,0.718413 0.18591,1.441862 0.1146,2.175637 -0.0809,0.83039 -0.19435,1.6863 -0.229,2.51911 -0.0563,1.35196 -0.38671,2.66981 -0.57255,4.00769 -0.0426,0.30687 -0.13693,1.25497 -0.458,1.35494 -0.2716,0.0848 -0.65109,-0.11278 -0.91606,-0.17179 -0.53382,-0.1187 -1.06832,-0.23209 -1.60308,-0.3435 -1.86299,-0.38808 -3.73939,-0.64913 -5.61076,-0.93507 -0.59222,-0.0907 -1.62461,0.0276 -2.13747,-0.30537 -0.44909,-0.29154 -0.78037,-1.01154 -1.10681,-1.43133 -0.81,-1.04142 -1.62037,-2.09222 -2.48098,-3.09165 -0.75871,-0.88111 -1.51103,-1.770701 -2.29011,-2.633608 -0.20802,-0.230274 -0.76341,-0.575514 -0.76341,-0.916061 0,-0.262422 0.36296,-0.522725 0.53439,-0.687018 0.64662,-0.6196 1.36353,-1.174724 2.06112,-1.736705 2.91906,-2.351475 6.31026,-4.6536238 10.07646,-5.2290248 m -15.34372,10.1718668 2.97714,3.32067 1.48857,1.94659 -7.78638,-0.1146 -1.14503,0.1146 1.14503,-1.60308 2.40461,-2.74812 0.91606,-0.91606 m -4.00771,8.83604 3.09165,-0.0182 5.38177,0.1146 1.94658,0.11461 0.91604,0.0572 0.64892,0.85881 1.29769,1.94659 4.14131,7.21383 0.91604,1.83208 0.32439,0.80155 -1.01143,2.17561 -2.84362,5.26723 -2.48087,4.00769 -1.10692,1.35496 -0.91606,0.0182 -1.83207,0.1146 -5.15275,0.1146 -3.66418,-0.0955 -2.061095,-0.13351 -0.916039,-0.0572 -0.954178,-1.3168 -2.175609,-3.43518 -3.072623,-5.49626 -1.106806,-2.4046 0.419766,-1.03055 1.030549,-2.0611 4.141312,-7.21383 1.22143,-1.8321 0.496159,-0.62979 1.030549,-0.0572 2.290095,-0.20983 m -8.129881,0.78241 -1.22143,2.06112 -3.129764,5.72527 h -0.114602 l -1.603079,-4.35121 -0.57253,-2.17561 6.641314,-1.25957 m 30.916472,1.25957 -1.22143,3.89317 -0.95418,2.51914 -1.62219,-2.86264 -1.69846,-2.86263 -1.14508,-1.94661 6.64134,1.25957 m -41.107452,1.03055 2.328236,6.75581 0.916039,2.17559 0.381762,0.91606 -0.267252,0.80155 -0.916038,2.17559 -1.641219,4.58021 -0.801528,2.40461 c -1.276385,-0.23508 -2.579358,-0.85281 -3.778688,-1.33592 -2.756021,-1.11002 -5.364109,-2.4471 -7.671863,-4.37022 -1.2492488,-1.0411 -2.8072158,-2.69993 -2.6336278,-4.48484 0.16541,-1.70198 1.627139,-3.11167 2.8626488,-4.14131 2.127718,-1.77311 4.574383,-2.97462 7.099334,-4.02668 1.302038,-0.54252 2.721914,-1.19247 4.122196,-1.45045 m 44.657122,19.80942 -2.55726,-7.32833 -0.78251,-1.83208 -0.28627,-0.91606 0.83978,-1.94659 1.90833,-5.15273 0.76341,-2.63363 c 1.04179,0.082 2.12374,0.61593 3.09165,0.99243 3.08673,1.20033 6.40532,2.58369 8.81692,4.96183 1.13303,1.11736 2.45868,2.50333 2.29012,4.23671 -0.16244,1.66983 -1.63285,3.13161 -2.86265,4.1222 -2.25254,1.81457 -4.78975,3.09176 -7.44286,4.16033 -1.20411,0.48504 -2.49529,1.09947 -3.77866,1.33592 m -22.78659,-17.36664 c -1.02574,0.19936 -2.01576,0.30184 -2.97714,0.78253 -1.584077,0.79203 -2.856793,2.24853 -3.511527,3.87405 -1.888785,4.68946 1.605016,10.19098 6.717687,10.19098 0.45059,0 0.9308,0.0481 1.37406,-0.0383 3.37838,-0.6569 5.95737,-3.2161 6.2978,-6.71769 0.38921,-4.00356 -2.70175,-7.63235 -6.64131,-8.01536 -0.44039,-0.0428 -0.80784,-0.16404 -1.25957,-0.0763 m 17.06131,11.87042 1.52671,4.1222 0.6489,2.40463 -3.20616,0.64888 -3.43518,0.61067 1.33594,-2.29012 1.8511,-3.20614 1.27869,-2.29012 m -33.092056,0.11461 2.671745,4.80923 1.679449,2.86263 -3.435179,-0.61065 -3.206135,-0.6489 1.488569,-4.69472 0.801551,-1.71759 m -3.206158,9.84747 c 2.228854,0.64523 4.681899,1.11815 6.984822,1.37406 0.84083,0.0934 1.677399,0.26164 2.519118,0.34353 0.318219,0.031 0.634251,-0.051 0.916061,0.15265 0.397301,0.2873 0.634912,0.84217 0.935154,1.2214 0.909637,1.14907 1.800955,2.31726 2.748116,3.43518 0.694832,0.82021 1.400993,1.63844 2.156493,2.40463 0.21963,0.2226 0.76811,0.69032 0.76341,1.03053 -0.005,0.375 -0.61923,0.74578 -0.87792,0.95418 -0.73443,0.59164 -1.439789,1.22027 -2.175609,1.81307 -2.356852,1.89849 -5.095832,3.6738 -8.015372,4.48473 -1.342457,0.37295 -2.91439,0.71839 -4.236684,0.0572 -1.670427,-0.83509 -2.281985,-3.08224 -2.51914,-4.7901 -0.563485,-4.05692 -0.346607,-8.51497 0.801551,-12.4811 m 39.504374,0 c 0.10002,1.26759 0.54642,2.51317 0.68702,3.77869 0.27506,2.47574 0.472,4.944 0.22902,7.44284 -0.1661,1.70775 -0.45185,3.6311 -1.52671,5.03826 -1.29587,1.69638 -3.52148,1.37773 -5.34361,0.89692 -1.72845,-0.45608 -3.29077,-1.32598 -4.80923,-2.23286 -2.29607,-1.37119 -4.52171,-3.07128 -6.41232,-4.96187 l 1.71759,-1.94658 3.05351,-3.66418 1.22132,-1.60308 0.76341,-0.97329 0.80155,-0.0763 2.51911,-0.32439 5.15275,-0.95418 1.94659,-0.4199 m -15.34373,2.17561 -0.99243,1.37408 -2.23284,2.6336 -1.24043,1.10692 -1.14506,-1.10692 -3.32067,-4.00768 6.87031,0.1146 z"
       id="path357" />
  </g>
</svg>
