<?xml version="1.0" encoding="UTF-8" standalone="no"?>
<!-- Created with Inkscape (http://www.inkscape.org/) -->

<svg
   width="156.24596mm"
   height="146.04546mm"
   viewBox="0 0 156.24596 146.04546"
   version="1.1"
   id="svg5"
   inkscape:version="1.1 (c68e22c387, 2021-05-23)"
   sodipodi:docname="technologies.svg"
   inkscape:export-filename="C:\Users\dging\Programming\personal-website\assets\technologies.png"
   inkscape:export-xdpi="96"
   inkscape:export-ydpi="96"
   xmlns:inkscape="http://www.inkscape.org/namespaces/inkscape"
   xmlns:sodipodi="http://sodipodi.sourceforge.net/DTD/sodipodi-0.dtd"
   xmlns="http://www.w3.org/2000/svg"
   xmlns:svg="http://www.w3.org/2000/svg">
  <sodipodi:namedview
     id="namedview7"
     pagecolor="#ffffff"
     bordercolor="#666666"
     borderopacity="1.0"
     inkscape:pageshadow="2"
     inkscape:pageopacity="0.0"
     inkscape:pagecheckerboard="0"
     inkscape:document-units="mm"
     showgrid="false"
     inkscape:zoom="0.69044441"
     inkscape:cx="379.46574"
     inkscape:cy="527.92085"
     inkscape:window-width="1920"
     inkscape:window-height="1017"
     inkscape:window-x="1912"
     inkscape:window-y="-8"
     inkscape:window-maximized="1"
     inkscape:current-layer="layer2" />
  <defs
     id="defs2" />
  <g
     inkscape:groupmode="layer"
     id="layer2"
     inkscape:label="JavaScript Background"
     transform="translate(-27.35265,-15.114667)">
    <rect
       style="fill:#ffff66;fill-opacity:0;stroke-width:0.264583;paint-order:stroke fill markers"
       id="rect23072"
       width="156.24596"
       height="55.279259"
       x="27.35265"
       y="71.438011" />
    <rect
       style="fill:#ffff66;fill-opacity:0.997283;stroke:none;stroke-width:0.296757;stroke-opacity:1;paint-order:stroke fill markers"
       id="rect23198"
       width="148.92586"
       height="42.40601"
       x="31.643736"
       y="80.525017" />
  </g>
  <g
     inkscape:label="Layer 1"
     inkscape:groupmode="layer"
     id="layer1"
     transform="translate(-27.35265,-15.114667)">
    <path
       style="fill:#62d9fb;stroke:none;stroke-width:0.0502577;paint-order:stroke fill markers"
       d="m 130.20492,139.63515 c -1.80883,0.57123 -3.60228,1.27775 -5.1263,2.42076 -0.79658,0.59742 -1.52125,1.29153 -1.95165,2.20295 -0.0974,0.20621 -0.14625,0.43413 -0.20104,0.65336 -0.52484,2.09931 1.52467,3.78722 3.10759,4.73262 0.31276,0.18676 0.62989,0.37356 0.9549,0.53605 0.39025,0.19515 0.80051,0.36432 1.20619,0.52771 0.61038,0.24585 1.34871,0.63465 2.01031,0.68687 0,0.68596 -0.28546,1.37801 -0.35181,2.06057 -0.20037,2.06107 -0.33828,4.23663 0.66175,6.13145 0.13785,0.26123 0.33673,0.49588 0.54444,0.70361 1.40571,1.40571 3.70555,0.87126 5.27707,0.0419 0.41236,-0.21761 0.80422,-0.46352 1.20618,-0.7036 0.38694,-0.23109 0.74583,-0.50907 1.10567,-0.779 0.45177,-0.33884 0.8879,-0.6941 1.30671,-1.07215 0.16574,-0.14961 0.33949,-0.25742 0.45232,-0.45231 h 0.0503 c 0.13128,0.22078 0.40005,0.40602 0.6031,0.56956 0.37155,0.29934 0.7231,0.61773 1.10567,0.90464 0.40532,0.30401 0.82291,0.60621 1.25644,0.87117 0.27983,0.17103 0.56405,0.33226 0.85438,0.47745 1.64926,0.82463 3.99082,1.67992 5.52836,0.14238 0.20771,-0.20772 0.40658,-0.44237 0.54444,-0.70361 0.93404,-1.76972 0.90117,-3.83411 0.712,-5.77964 -0.0534,-0.54902 -0.15524,-1.11713 -0.26802,-1.65851 -0.0526,-0.25254 -0.13404,-0.49288 -0.13404,-0.75386 0.73436,-0.058 1.54105,-0.50806 2.21134,-0.78739 0.39392,-0.1641 0.77664,-0.33804 1.15593,-0.52771 0.3417,-0.17082 0.68295,-0.36758 1.00516,-0.57796 1.47571,-0.96329 3.29751,-2.49259 2.88142,-4.48968 -0.0546,-0.26205 -0.11092,-0.50992 -0.22616,-0.75387 -0.21399,-0.45317 -0.50765,-0.88167 -0.84598,-1.25644 -1.06733,-1.18231 -2.63301,-1.99754 -4.07088,-2.59667 -0.51002,-0.21249 -1.03245,-0.39437 -1.558,-0.56957 -0.15333,-0.0511 -0.49604,-0.0974 -0.57796,-0.25129 -0.0773,-0.14535 0.0763,-0.497 0.10891,-0.65335 0.11303,-0.54258 0.21455,-1.10853 0.26802,-1.65851 0.16309,-1.67725 0.24994,-3.52834 -0.39367,-5.12629 -0.29626,-0.73552 -0.73798,-1.46698 -1.46586,-1.85114 -2.25361,-1.18941 -4.96758,0.45493 -6.7848,1.76736 -0.4669,0.33723 -0.92967,0.70316 -1.35696,1.08894 -0.13555,0.12237 -0.41774,0.48453 -0.60309,0.50257 -0.1648,0.016 -0.34703,-0.25676 -0.45232,-0.3518 -0.3214,-0.29014 -0.66537,-0.56867 -1.00516,-0.83764 -1.23102,-0.97456 -2.651,-1.8895 -4.1714,-2.31186 -0.49448,-0.13736 -0.99445,-0.21777 -1.50773,-0.21777 -0.36105,0 -0.70898,0.0282 -1.05541,0.13404 -2.00961,0.61405 -2.33965,2.80855 -2.51289,4.59019 -0.0614,0.63114 -0.0616,1.27599 0,1.9098 0.0376,0.38653 0.1079,0.76994 0.15077,1.15592 0.07,0.62988 0.1749,1.29862 0.35181,1.9098 m 1.50773,-0.45232 c -0.012,-0.45388 -0.20098,-0.90434 -0.25129,-1.35696 -0.0633,-0.57008 -0.14554,-1.13784 -0.20103,-1.70876 -0.0712,-0.73267 0.0205,-1.4913 0.10052,-2.21135 0.0682,-0.61319 0.23827,-1.30977 0.61983,-1.80928 0.47729,-0.6248 1.23819,-0.64807 1.94331,-0.51097 1.43049,0.27818 2.72744,1.1293 3.86985,2.00197 0.3804,0.29059 0.7602,0.59028 1.10567,0.92137 0.09,0.0863 0.28301,0.18098 0.32668,0.30156 0.0582,0.16062 -0.23074,0.35501 -0.32668,0.45231 -0.3905,0.39604 -0.73627,0.84087 -1.10567,1.25645 -0.3518,0.39577 -0.67104,0.83327 -0.98842,1.25644 -0.13831,0.18445 -0.29125,0.50193 -0.48579,0.62822 -0.14414,0.0936 -0.37497,0.0597 -0.5361,0.0754 -0.24953,0.0243 -0.50595,0.071 -0.75387,0.10891 -0.70401,0.10755 -1.41249,0.2147 -2.11083,0.36014 -0.39894,0.0831 -0.79603,0.23456 -1.20618,0.23456 m 15.42914,-7.68104 c 0.20027,-0.0306 0.45111,-0.028 0.65335,-0.008 1.28846,0.1253 1.60709,1.76882 1.70876,2.81444 0.0145,0.14937 -0.0145,0.30295 0,0.45231 0.0307,0.31532 0.0816,0.63285 0.0503,0.95491 -0.0355,0.36447 -0.0853,0.74014 -0.10051,1.10567 -0.0247,0.59339 -0.16973,1.17181 -0.2513,1.75902 -0.0187,0.13469 -0.0601,0.55082 -0.20102,0.5947 -0.11921,0.0372 -0.28577,-0.0495 -0.40207,-0.0754 -0.2343,-0.0521 -0.4689,-0.10187 -0.70361,-0.15077 -0.81769,-0.17033 -1.64126,-0.28491 -2.46263,-0.41041 -0.25993,-0.0398 -0.71306,0.0121 -0.93816,-0.13403 -0.19711,-0.12796 -0.34251,-0.44398 -0.48579,-0.62823 -0.35552,-0.45709 -0.7112,-0.9183 -1.08893,-1.35696 -0.33301,-0.38673 -0.66321,-0.77718 -1.00516,-1.15592 -0.0913,-0.10107 -0.33507,-0.2526 -0.33507,-0.40207 0,-0.11518 0.15931,-0.22943 0.23455,-0.30154 0.28381,-0.27195 0.59847,-0.5156 0.90465,-0.76226 1.28121,-1.03209 2.76965,-2.04253 4.42268,-2.29508 m -6.73454,4.46455 1.3067,1.45748 0.65335,0.85438 -3.41753,-0.0503 -0.50257,0.0503 0.50257,-0.70361 1.05541,-1.20618 0.40207,-0.40207 m -1.75903,3.87824 1.35696,-0.008 2.36212,0.0503 0.85438,0.0503 0.40206,0.0251 0.28482,0.37694 0.56957,0.85438 1.81767,3.16624 0.40206,0.80412 0.14238,0.35181 -0.44393,0.9549 -1.2481,2.31185 -1.08888,1.75902 -0.48584,0.59471 -0.40207,0.008 -0.80412,0.0503 -2.2616,0.0503 -1.60825,-0.0419 -0.90464,-0.0586 -0.40206,-0.0251 -0.4188,-0.57796 -0.9549,-1.50774 -1.34861,-2.41237 -0.48579,-1.05541 0.18424,-0.45232 0.45232,-0.90464 1.81767,-3.16624 0.5361,-0.80413 0.21777,-0.27642 0.45232,-0.0251 1.00515,-0.0921 m -3.5683,0.34341 -0.5361,0.90465 -1.37369,2.51289 h -0.0503 l -0.70361,-1.9098 -0.25129,-0.9549 2.91495,-0.55284 m 13.5696,0.55284 -0.5361,1.70876 -0.4188,1.10568 -0.712,-1.25645 -0.74547,-1.25644 -0.50259,-0.85439 2.91496,0.55284 m -18.04254,0.45232 1.02189,2.96521 0.40206,0.95489 0.16756,0.40207 -0.1173,0.35181 -0.40206,0.95489 -0.72035,2.01031 -0.3518,1.05541 c -0.56022,-0.10318 -1.13211,-0.37431 -1.65851,-0.58635 -1.20965,-0.4872 -2.35437,-1.07406 -3.36727,-1.91814 -0.54831,-0.45695 -1.23212,-1.18503 -1.15593,-1.96845 0.0726,-0.74702 0.71417,-1.36575 1.25645,-1.81767 0.93388,-0.77824 2.00775,-1.3056 3.11598,-1.76736 0.57148,-0.23812 1.19468,-0.52339 1.80928,-0.63662 m 19.60053,8.69459 -1.12241,-3.21649 -0.34345,-0.80412 -0.12565,-0.40207 0.36859,-0.85438 0.83759,-2.2616 0.33507,-1.15593 c 0.45725,0.036 0.93213,0.27034 1.35696,0.43559 1.3548,0.52684 2.81137,1.13401 3.86985,2.17781 0.4973,0.49042 1.07914,1.09874 1.00516,1.85954 -0.0713,0.73291 -0.71668,1.3745 -1.25645,1.80928 -0.98867,0.79644 -2.10228,1.35701 -3.26676,1.82602 -0.5285,0.21289 -1.09521,0.48257 -1.6585,0.58635 m -10.0013,-7.62244 c -0.45021,0.0875 -0.88474,0.13248 -1.3067,0.34346 -0.69527,0.34763 -1.25388,0.98691 -1.54125,1.70037 -0.82901,2.05826 0.70446,4.47294 2.94847,4.47294 0.19777,0 0.40854,0.0211 0.60309,-0.0168 1.48281,-0.28832 2.61476,-1.41158 2.76418,-2.94847 0.17083,-1.75721 -1.18583,-3.34993 -2.91495,-3.51804 -0.19329,-0.0188 -0.35457,-0.072 -0.55284,-0.0335 m 7.48841,5.21007 0.67009,1.80928 0.28481,1.05542 -1.40722,0.2848 -1.50774,0.26803 0.58636,-1.00516 0.81247,-1.40721 0.56123,-1.00516 m -14.52449,0.0503 1.17266,2.11083 0.73713,1.25644 -1.50774,-0.26802 -1.40721,-0.28481 0.65335,-2.06057 0.35181,-0.75387 m -1.40722,4.32217 c 0.97827,0.2832 2.05494,0.49077 3.06572,0.60309 0.36905,0.041 0.73623,0.11484 1.10567,0.15078 0.13967,0.0136 0.27838,-0.0224 0.40207,0.067 0.17438,0.1261 0.27867,0.36964 0.41045,0.53609 0.39925,0.50434 0.79046,1.01707 1.20618,1.50774 0.30497,0.36 0.61491,0.71913 0.94651,1.05542 0.0964,0.0977 0.33713,0.30299 0.33507,0.45231 -0.002,0.16459 -0.27179,0.32733 -0.38533,0.4188 -0.32235,0.25968 -0.63194,0.53559 -0.9549,0.79578 -1.03445,0.83327 -2.23662,1.61247 -3.51804,1.9684 -0.58922,0.16369 -1.27916,0.31531 -1.85953,0.0251 -0.73317,-0.36653 -1.00159,-1.35283 -1.10568,-2.10243 -0.24732,-1.78063 -0.15213,-3.73732 0.35181,-5.4781 m 17.33893,0 c 0.0439,0.55636 0.23983,1.10306 0.30154,1.65851 0.12073,1.08663 0.20717,2.16998 0.10052,3.26675 -0.0729,0.74955 -0.19832,1.59373 -0.67009,2.21135 -0.56877,0.74456 -1.54562,0.6047 -2.34537,0.39367 -0.75864,-0.20018 -1.44436,-0.58199 -2.11083,-0.98003 -1.00777,-0.60183 -1.98463,-1.34802 -2.81444,-2.17782 l 0.75387,-0.85438 1.34022,-1.60825 0.53605,-0.70361 0.33507,-0.42719 0.35181,-0.0335 1.10567,-0.14238 2.2616,-0.4188 0.85438,-0.1843 m -6.73454,0.9549 -0.43559,0.6031 -0.98002,1.15592 -0.54444,0.48584 -0.50258,-0.48584 -1.45748,-1.75902 3.01546,0.0503 z"
       id="path357" />
    <text
       xml:space="preserve"
       style="font-style:normal;font-variant:normal;font-weight:300;font-stretch:normal;font-size:26.4583px;line-height:1.25;font-family:'Yu Gothic UI';-inkscape-font-specification:'Yu Gothic UI, Light';font-variant-ligatures:normal;font-variant-caps:normal;font-variant-numeric:normal;font-variant-east-asian:normal;fill:#62d9fb;fill-opacity:1;stroke:none;stroke-width:0.264583"
       x="56.926167"
       y="153.79971"
       id="text1669"><tspan
         sodipodi:role="line"
         id="tspan1667"
         style="font-style:normal;font-variant:normal;font-weight:300;font-stretch:normal;font-size:26.4583px;font-family:'Yu Gothic UI';-inkscape-font-specification:'Yu Gothic UI, Light';font-variant-ligatures:normal;font-variant-caps:normal;font-variant-numeric:normal;font-variant-east-asian:normal;fill:#62d9fb;fill-opacity:1;stroke-width:0.264583"
         x="56.926167"
         y="153.79971">React</tspan></text>
    <text
       xml:space="preserve"
       style="font-style:normal;font-variant:normal;font-weight:300;font-stretch:normal;font-size:26.4583px;line-height:1.25;font-family:'Yu Gothic UI';-inkscape-font-specification:'Yu Gothic UI, Light';font-variant-ligatures:normal;font-variant-caps:normal;font-variant-numeric:normal;font-variant-east-asian:normal;fill:#000000;fill-opacity:1;stroke:none;stroke-width:0.264583"
       x="38.843769"
       y="110.07226"
       id="text1669-3"><tspan
         sodipodi:role="line"
         id="tspan1667-4"
         style="font-style:normal;font-variant:normal;font-weight:300;font-stretch:normal;font-size:26.4583px;font-family:'Yu Gothic UI';-inkscape-font-specification:'Yu Gothic UI, Light';font-variant-ligatures:normal;font-variant-caps:normal;font-variant-numeric:normal;font-variant-east-asian:normal;fill:#000000;fill-opacity:1;stroke-width:0.264583"
         x="38.843769"
         y="110.07226">JavaScript</tspan></text>
    <text
       xml:space="preserve"
       style="font-style:normal;font-variant:normal;font-weight:300;font-stretch:normal;font-size:26.4583px;line-height:1.25;font-family:'Yu Gothic UI';-inkscape-font-specification:'Yu Gothic UI, Light';font-variant-ligatures:normal;font-variant-caps:normal;font-variant-numeric:normal;font-variant-east-asian:normal;fill:#000000;fill-opacity:1;stroke:none;stroke-width:0.264583"
       x="151.72549"
       y="108.60842"
       id="text1669-3-7"><tspan
         sodipodi:role="line"
         id="tspan1667-4-4"
         style="font-style:normal;font-variant:normal;font-weight:300;font-stretch:normal;font-size:26.4583px;font-family:'Yu Gothic UI';-inkscape-font-specification:'Yu Gothic UI, Light';font-variant-ligatures:normal;font-variant-caps:normal;font-variant-numeric:normal;font-variant-east-asian:normal;fill:#000000;fill-opacity:1;stroke-width:0.264583"
         x="151.72549"
         y="108.60842">{ }</tspan></text>
    <text
       xml:space="preserve"
       style="font-style:normal;font-weight:normal;font-size:10.5833px;line-height:1.25;font-family:sans-serif;fill:#000000;fill-opacity:1;stroke:none;stroke-width:0.264583"
       x="65.123512"
       y="170.6337"
       id="text16871"><tspan
         sodipodi:role="line"
         id="tspan16869"
         style="stroke-width:0.264583"
         x="65.123512"
         y="170.6337" /></text>
    <text
       xml:space="preserve"
       style="font-style:normal;font-variant:normal;font-weight:300;font-stretch:normal;font-size:26.4583px;line-height:1.25;font-family:'Yu Gothic UI';-inkscape-font-specification:'Yu Gothic UI, Light';font-variant-ligatures:normal;font-variant-caps:normal;font-variant-numeric:normal;font-variant-east-asian:normal;fill:#000db6;fill-opacity:1;stroke:none;stroke-width:0.264583"
       x="71.961815"
       y="66.2024"
       id="text1669-3-3"><tspan
         sodipodi:role="line"
         id="tspan1667-4-8"
         style="font-style:normal;font-variant:normal;font-weight:300;font-stretch:normal;font-size:26.4583px;font-family:'Yu Gothic UI';-inkscape-font-specification:'Yu Gothic UI, Light';font-variant-ligatures:normal;font-variant-caps:normal;font-variant-numeric:normal;font-variant-east-asian:normal;fill:#000db6;fill-opacity:1;stroke-width:0.264583"
         x="71.961815"
         y="66.2024">: CSS;</tspan></text>
    <text
       xml:space="preserve"
       style="font-style:normal;font-variant:normal;font-weight:300;font-stretch:normal;font-size:26.4583px;line-height:1.25;font-family:'Yu Gothic UI';-inkscape-font-specification:'Yu Gothic UI, Light';font-variant-ligatures:normal;font-variant-caps:normal;font-variant-numeric:normal;font-variant-east-asian:normal;fill:#ff6633;fill-opacity:1;stroke:none;stroke-width:0.264583"
       x="54.797478"
       y="33.640644"
       id="text1669-3-0"><tspan
         sodipodi:role="line"
         id="tspan1667-4-3"
         style="font-style:normal;font-variant:normal;font-weight:300;font-stretch:normal;font-size:26.4583px;font-family:'Yu Gothic UI';-inkscape-font-specification:'Yu Gothic UI, Light';font-variant-ligatures:normal;font-variant-caps:normal;font-variant-numeric:normal;font-variant-east-asian:normal;fill:#ff6633;fill-opacity:1;stroke-width:0.264583"
         x="54.797478"
         y="33.640644">&lt;HTML&gt;</tspan></text>
  </g>
</svg>
